HIERARCHY
ROOT Hips
{
  OFFSET 0 0 0
  CHANNELS 6 Xposition Yposition Zposition Zrotation Yrotation Xrotation
  JOINT LeftThigh
  {
    OFFSET 8.409438 0 -5.917753
    CHANNELS 3 Zrotation Yrotation Xrotation
    JOINT LeftLeg
    {
      OFFSET 0 0 -42.358652
      CHANNELS 3 Zrotation Yrotation Xrotation
      JOINT LeftFoot
      {
        OFFSET 0 0 -39.357303
        CHANNELS 3 Zrotation Yrotation Xrotation
      }
    }
  }
  JOINT RightThigh
  {
    OFFSET -8.409438 0 -5.917753
    CHANNELS 3 Zrotation Yrotation Xrotation
    JOINT RightLeg
    {
      OFFSET 0 0 -42.358652
      CHANNELS 3 Zrotation Yrotation Xrotation
      JOINT RightFoot
      {
        OFFSET 0 0 -39.357303
        CHANNELS 3 Zrotation Yrotation Xrotation
      }
    }
  }
  JOINT SpineLow
  {
    OFFSET 0 0 4.719101
    CHANNELS 3 Zrotation Yrotation Xrotation
    JOINT SpineMid
    {
      OFFSET 0 0 12.899191
      CHANNELS 3 Zrotation Yrotation Xrotation
      JOINT Chest
      {
        OFFSET 0 0 12.899191
        CHANNELS 3 Zrotation Yrotation Xrotation
        JOINT LeftShoulder
        {
          OFFSET 7.550562 1.41573 9.438202
          CHANNELS 3 Zrotation Yrotation Xrotation
          JOINT LeftArm
          {
            OFFSET 9.155056 0 4.247191
            CHANNELS 3 Zrotation Yrotation Xrotation
            JOINT LeftForearm
            {
              OFFSET 0 0 25.771955
              CHANNELS 3 Zrotation Yrotation Xrotation
              JOINT LeftHand
              {
                OFFSET 0 0 25.197169
                CHANNELS 3 Zrotation Yrotation Xrotation
              }
            }
          }
        }
        JOINT RightShoulder
        {
          OFFSET -7.550562 1.41573 9.438202
          CHANNELS 3 Zrotation Yrotation Xrotation
          JOINT RightArm
          {
            OFFSET -9.155056 0 4.247191
            CHANNELS 3 Zrotation Yrotation Xrotation
            JOINT RightForearm
            {
              OFFSET 0 0 -25.771955
              CHANNELS 3 Zrotation Yrotation Xrotation
              JOINT RightHand
              {
                OFFSET 0 0 -25.197169
                CHANNELS 3 Zrotation Yrotation Xrotation
              }
            }
          }
        }
        JOINT Neck
        {
          OFFSET 0 0 15.101124
          CHANNELS 3 Zrotation Yrotation Xrotation
          JOINT Head
          {
            OFFSET 0 0 11.325843
            CHANNELS 3 Zrotation Yrotation Xrotation
            End Site
            {
              OFFSET 0 0 14.157303
            }
          }
        }
      }
    }
  }
}
MOTION
Frames: 13
Frame Time: 0.0
0.0  93.25843  0.0  -2.025166  -34.525283  -88.357171  39.733709  -20.306368  -41.314158  -0.828684  8.624228  42.436771  2.967029  0.308843  1.815786  -20.802026  17.813728  -14.496014  -2.599515  12.273641  26.051433  5.632608  1.680054  -1.707199  2.391502  -0.10564  0.303722  6.535532  -0.318438  0.818827  6.535532  -0.318438  0.818827  -24.767558  15.58528  3.870696  -128.025515  67.642312  -62.415666  -44.797682  5.134537  74.095368  60.41997  -22.765564  1.408547  -5.569917  -11.486171  20.635676  100.586638  34.070008  39.11685  -15.567568  -15.765636  -121.142714  65.214115  -16.20489  -27.760539  11.775748  2.208318  2.644532  8.82136  1.707985  1.941432  
0.0  93.25843  0.0  -2.311459  -34.263144  -87.886418  40.359619  -20.223363  -41.734716  -0.901788  8.776084  41.958216  2.726626  0.212623  1.766341  -19.578838  17.391582  -14.059007  -3.042298  11.839905  26.147024  4.776134  1.907139  -1.81852  2.327938  -0.18116  0.171217  6.361984  -0.511122  0.450088  6.361984  -0.511122  0.450088  -24.446847  16.097874  4.544892  -127.722184  67.689981  -61.897337  -44.875307  5.183362  74.103803  60.32262  -22.830037  1.716071  -5.393014  -11.236514  21.009842  100.607495  34.12707  38.961219  -15.646159  -15.720685  -120.963019  64.654765  -16.234156  -27.170853  11.844012  2.252002  2.947209  8.871251  1.746945  2.167416  
0.0  93.25843  0.0  -2.46704  -33.960744  -87.479807  40.605226  -20.039941  -42.080351  -0.891706  8.730211  41.583426  2.347987  0.135861  1.656333  -18.962094  17.031209  -13.910157  -3.123454  11.761645  26.051739  4.017839  1.759838  -1.756278  2.186002  -0.271762  0.009862  5.97534  -0.743027  0.002381  5.97534  -0.743027  0.002381  -23.586361  16.802407  5.326756  -127.758337  67.797871  -61.65734  -44.900902  5.142093  74.082257  60.223622  -22.905985  1.957309  -4.707607  -10.780087  21.634533  99.340181  34.794127  37.869628  -14.523762  -15.647371  -120.619788  64.138911  -16.329609  -26.452165  12.176388  2.362492  3.325758  9.118463  1.839062  2.448016  
0.0  93.25843  0.0  -2.502182  -33.656068  -87.288327  40.528613  -19.881217  -42.24482  -0.834569  8.549732  41.306984  2.163029  0.014015  1.666205  -18.91444  16.898984  -13.747558  -3.135094  11.824236  25.708792  4.145587  1.559745  -1.619323  2.189649  -0.303004  -0.0472  5.98606  -0.82318  -0.156321  5.98606  -0.82318  -0.156321  -23.778289  17.083164  5.595674  -128.064534  68.037545  -61.699469  -44.888091  4.952319  74.051701  60.066049  -22.984503  2.224886  -4.725652  -10.606601  21.836409  99.208508  34.794375  37.587022  -14.549608  -15.76678  -120.412226  63.757864  -16.341733  -25.777582  11.992798  2.41889  3.322689  8.980428  1.880294  2.445263  
0.0  93.25843  0.0  -2.445796  -33.188189  -87.238018  39.986274  -19.767207  -42.307398  -0.759151  8.370787  41.03449  2.039468  -0.078048  1.660761  -19.208225  16.860324  -13.527509  -2.864265  11.699716  25.394685  4.052568  1.16984  -1.356106  2.104347  -0.355052  -0.057902  5.753245  -0.964618  -0.189022  5.753245  -0.964618  -0.189022  -23.610031  17.488167  5.575601  -128.318195  68.370259  -61.773011  -44.829774  4.877477  74.091536  60.082624  -23.050283  2.329146  -4.256857  -10.21969  21.954188  97.85976  35.511633  36.446814  -13.620252  -15.813913  -120.138288  63.443186  -16.442056  -25.353672  11.585824  2.491288  3.007958  8.675987  1.926364  2.209291  
0.0  93.25843  0.0  -2.349269  -32.689404  -87.29153  39.281121  -19.815942  -42.244862  -0.495832  8.145724  40.864519  2.087414  -0.131595  1.677609  -19.381801  16.834752  -13.226093  -2.386422  11.49865  25.093755  3.927545  1.139305  -1.260328  2.113416  -0.352071  -0.0194  5.777467  -0.959813  -0.083738  5.777467  -0.959813  -0.083738  -23.983914  17.55434  5.469004  -128.214674  68.705345  -61.432903  -44.840084  4.772907  73.991597  60.102033  -23.100333  2.460648  -4.245036  -10.130993  21.949537  97.520999  35.708366  35.949708  -13.623268  -15.867949  -119.928961  63.27401  -16.336911  -24.836932  11.326199  2.562099  2.703846  8.482095  1.97253  1.980835  
0.0  93.25843  0.0  -2.249412  -32.128555  -87.466019  37.942831  -20.060433  -42.25712  0.051294  7.879857  40.839537  2.256936  -0.088872  1.673597  -19.423329  16.795347  -12.734154  -1.936452  11.369498  24.713092  3.826625  1.2394  -1.176852  2.038392  -0.408578  0.023336  5.571834  -1.117861  0.029315  5.571834  -1.117861  0.029315  -23.708799  17.997415  5.440273  -127.951023  69.046999  -60.831255  -44.854902  4.637262  73.886739  60.255172  -23.124496  2.419688  -3.988692  -9.708591  21.994691  97.357378  35.836611  35.455766  -13.623501  -15.824829  -119.702633  63.062105  -16.184383  -24.330571  11.300329  2.789577  2.509308  8.462285  2.139486  1.830727  
0.0  93.25843  0.0  -2.211132  -31.463247  -87.670565  36.836086  -20.45115  -42.111234  0.611317  7.676838  40.763284  2.547325  -0.048783  1.742631  -19.322704  16.712875  -12.018704  -1.753691  11.403446  24.148961  3.561059  1.175221  -1.031878  2.007807  -0.443576  0.046957  5.487845  -1.215406  0.091449  5.487845  -1.215406  0.091448  -23.842136  18.308324  5.655269  -127.601696  69.348777  -60.137857  -44.907022  4.230156  73.702577  60.347414  -23.077857  2.359493  -3.752986  -9.404359  22.378663  96.801914  36.271586  34.67406  -13.727936  -15.675814  -119.477491  62.736315  -15.99076  -23.791378  11.153283  2.86835  2.439455  8.351921  2.196685  1.777517  
0.0  93.25843  0.0  -2.094139  -31.72134  -88.162861  36.661065  -20.91053  -41.714675  1.227183  7.490526  40.801466  2.857483  0.031093  1.856841  -18.023095  16.804075  -10.888077  -1.700852  11.566344  23.353802  3.517503  1.127629  -0.888883  2.090374  -0.52253  0.081744  5.71288  -1.434118  0.178127  5.71288  -1.434118  0.178127  -23.705125  19.025248  5.928284  -127.657066  69.715338  -59.740083  -45.004882  3.601511  73.46972  60.445208  -23.003  2.236416  -3.404494  -8.780178  22.921344  96.331787  36.773923  33.87255  -13.848866  -15.521563  -119.260035  62.401982  -15.748578  -23.211038  11.086369  3.067191  2.594852  8.29994  2.348423  1.890716  
0.0  93.25843  0.0  -2.228097  -30.851045  -88.075194  35.729539  -21.124774  -41.92703  1.628237  7.40591  40.801792  3.145278  0.028043  1.933647  -17.531675  16.717577  -9.956019  -2.264881  11.589473  22.456869  3.119813  1.060378  -0.685513  2.057165  -0.592232  0.023001  5.623529  -1.619416  0.012463  5.623529  -1.619416  0.012463  -23.911714  19.578774  6.254311  -128.176552  70.242093  -59.80899  -45.176525  2.748752  73.169974  60.502074  -22.915757  2.07684  -3.212184  -8.407553  23.450989  95.708465  37.429369  32.934563  -13.993058  -15.436881  -119.061245  62.12277  -15.468476  -22.584457  10.839452  3.088682  2.823444  8.11355  2.367522  2.063003  
0.0  93.25843  0.0  -2.29392  -30.019077  -88.010961  35.107729  -21.066609  -42.11673  1.903392  7.221246  40.839922  3.374056  0.026584  1.996847  -16.707308  16.797322  -8.916739  -3.014859  11.54448  21.447517  2.523433  0.97425  -0.450898  2.044046  -0.644099  -0.0276  5.589142  -1.756801  -0.129828  5.589142  -1.756801  -0.129828  -23.857126  20.236427  6.565407  -129.33657  70.900354  -60.240382  -45.315212  1.794118  72.814817  60.457862  -22.789042  1.963551  -2.994229  -8.162914  23.752615  95.042392  38.180199  31.971392  -14.110659  -15.460565  -118.915701  61.961258  -15.192396  -21.902126  10.454135  3.077793  3.02846  7.823685  2.361027  2.218869  
0.0  93.25843  0.0  -2.367517  -28.968191  -87.951506  34.535064  -20.74039  -42.299484  1.936885  6.992337  40.795463  3.530025  0.002548  2.054105  -15.932023  16.92303  -7.816303  -4.07881  11.372855  20.442799  1.978257  0.967577  -0.216424  2.059627  -0.671686  -0.056805  5.632687  -1.829619  -0.212376  5.632687  -1.829619  -0.212376  -24.334599  20.632037  6.608061  -131.400439  71.355702  -61.793726  -45.281143  0.89457  72.304762  60.351659  -22.588694  1.874815  -3.012148  -8.084708  23.781578  94.218487  39.131715  30.853781  -14.264496  -15.533355  -118.815804  61.830035  -14.970039  -21.249279  9.88121  3.03198  3.186128  7.393602  2.326285  2.340696  
0.0  93.25843  0.0  -2.06467  -28.948585  -88.422403  35.005531  -20.07146  -41.91471  1.783155  6.657046  40.710193  3.60397  0.005066  2.108527  -14.113734  17.497845  -6.499086  -5.027107  11.103195  19.481296  1.450108  0.969551  -0.011624  2.253531  -0.629779  -0.033409  6.161949  -1.716609  -0.149916  6.161949  -1.716609  -0.149916  -24.392453  20.927931  6.805824  -134.292508  71.098767  -66.806316  -44.563613  2.51459  73.430873  60.29042  -22.298067  1.700155  -3.909107  -8.350499  23.341153  94.257227  39.723014  30.148089  -14.557113  -15.610605  -118.635496  61.782452  -14.74027  -20.86145  9.15833  2.860596  3.349747  6.851879  2.196298  2.469543  
